<svg width="512" height="512" xmlns="http://www.w3.org/2000/svg" preserveAspectRatio="xMidYMid meet">

 <g>
  <title>background</title>
  <rect fill="none" id="canvas_background" height="402" width="582" y="-1" x="-1"/>
 </g>
 <g>
  <title>Layer 1</title>
  <path fill="#ffffff" id="svg_2" d="m235.000004,5.099992c-76.600001,8.6 -141.400002,58.000001 -169.000003,128.900002c-29.7,76.200001 -12.3,153.400002 54.500001,242.500004c29.9,39.900001 75.300001,86.500001 117.700002,120.600002c12.3,9.9 15.5,11.6 20.6,10.4c10.1,-2.2 78.700001,-65.900001 108.600002,-101.000002c68.300001,-79.900001 98.700001,-152.400002 91.600001,-218.300003c-4.7,-42.800001 -20.2,-79.200001 -47.800001,-112.200002c-32.4,-38.800001 -80.400001,-64.500001 -131.200002,-70.400001c-14.3,-1.7 -32.6,-1.9 -45.000001,-0.5zm39.800001,24c53.100001,5.8 101.000002,34.700001 130.500002,78.700001c7.5,11.1 17.8,32 21.6,43.700001c13.6,42.000001 11.8,82.000001 -5.5,125.800002c-9.3,23.4 -16.6,37.000001 -34.000001,63.200001c-18.7,28.2 -38.500001,52.300001 -66.400001,80.900001c-22.5,23 -62.000001,58.600001 -65.000001,58.600001c-2.6,0 -36.400001,-30.3 -58.600001,-52.500001c-32.7,-32.6 -52.100001,-55.800001 -72.800001,-87.000001c-27.8,-41.700001 -42.400001,-76.500001 -47.100001,-112.100002c-6.3,-47.800001 8.9,-98.000001 41.200001,-136.500002c37.800001,-45.100001 97.800001,-69.200001 156.100002,-62.800001z"/>
  <path fill="#ffffff" id="svg_3" d="m234.700003,53.499993c-26,3.7 -50.900001,14 -72.300001,29.8c-8.7,6.4 -25.5,23.3 -31.4,31.5c-16.5,22.9 -26,46.300001 -29.5,73.000001c-12,90.800001 56.700001,172.200003 148.500002,175.900003c96.200001,3.9 173.100003,-80.300001 160.500002,-175.900003c-6.2,-47.500001 -33.5,-88.900001 -75.400001,-114.200002c-14.8,-8.9 -33.700001,-15.9 -52.100001,-19.2c-12,-2.2 -36.300001,-2.7 -48.300001,-0.9zm46.800001,25c26.5,5.5 48.300001,17.3 67.500001,36.500001c23.9,23.8 36.800001,52.600001 38.700001,86.100001l0.6,10.9l-28.1,0l-28.1,0l-0.3,-52.500001l-0.3,-52.500001l-3.3,-3.2l-3.2,-3.3l-69.000001,0l-69.000001,0l-3.2,3.3l-3.3,3.2l-0.3,52.500001l-0.3,52.500001l-28.1,0l-28.1,0l0.6,-10.9c1.9,-33 14.7,-61.900001 37.700001,-85.200001c10.7,-10.8 16.7,-15.4 29.5,-22.8c14,-8 30.9,-13.8 47.100001,-16c9.7,-1.4 33.4,-0.6 42.900001,1.4zm26.5,129.500002l0,84.000001l-11.9,0l-12,0l-0.3,-20.5l-0.3,-20.5l-3.3,-3.2l-3.2,-3.3l-21,0l-21,0l-3.2,3.3l-3.3,3.2l-0.3,20.5l-0.3,20.5l-12,0l-11.9,0l0,-84.000001l0,-84.000001l52.000001,0l52.000001,0l0,84.000001zm-128.000002,56.000001l0,28l-12.9,0l-13,0l-5.4,-7.5c-8.9,-12.2 -17.9,-31.6 -21.1,-45.800001l-0.6,-2.7l26.5,0l26.5,0l0,28zm204.400003,-25.3c-3.2,13.9 -12.4,34.000001 -20.9,45.500001l-5.6,7.8l-13,0l-12.9,0l0,-28l0,-28l26.5,0l26.5,0l-0.6,2.7zm-124.400002,41.300001l0,12l-4,0l-4,0l0,-12l0,-12l4,0l4,0l0,12zm69.000001,38.000001c-4.1,3.1 -21,11.6 -28.6,14.3c-14.7,5.3 -26.5,7.2 -44.400001,7.2c-23.6,0 -38.300001,-3.5 -59.500001,-14c-20.9,-10.4 -27.1,-9.5 59.500001,-9.5c74.800001,0 75.500001,0.1 73.000001,2z"/>
  <path fill="#ffffff" id="svg_4" d="m219.500003,132.899994c-1.1,0.5 -3.1,2.1 -4.5,3.6c-2.4,2.6 -2.5,3.2 -2.5,15.6l0,12.9l3.3,3.2c2.8,2.8 3.9,3.3 8.2,3.3c4.3,0 5.4,-0.5 8.2,-3.3l3.3,-3.2l0,-13l0,-13l-3.1,-3.1c-3.3,-3.3 -9.2,-4.6 -12.9,-3z"/>
  <path fill="#ffffff" id="svg_5" d="m251.500004,132.899994c-1.1,0.5 -3.1,2.1 -4.5,3.6c-2.4,2.6 -2.5,3.2 -2.5,15.6l0,12.9l3.3,3.2c2.8,2.8 3.9,3.3 8.2,3.3c4.3,0 5.4,-0.5 8.2,-3.3l3.3,-3.2l0,-13l0,-13l-3.1,-3.1c-3.3,-3.3 -9.2,-4.6 -12.9,-3z"/>
  <path fill="#ffffff" id="svg_6" d="m283.500004,132.899994c-1.1,0.5 -3.1,2.1 -4.5,3.6c-2.4,2.6 -2.5,3.2 -2.5,15.6l0,12.9l3.3,3.2c2.8,2.8 3.9,3.3 8.2,3.3c4.3,0 5.4,-0.5 8.2,-3.3l3.3,-3.2l0,-13l0,-13l-3.1,-3.1c-3.3,-3.3 -9.2,-4.6 -12.9,-3z"/>
  <path fill="#ffffff" id="svg_7" d="m219.500003,196.899995c-1.1,0.5 -3.1,2.1 -4.5,3.6c-2.4,2.6 -2.5,3.2 -2.5,15.6l0,12.9l3.3,3.2c2.8,2.8 3.9,3.3 8.2,3.3c4.3,0 5.4,-0.5 8.2,-3.3l3.3,-3.2l0,-13l0,-13l-3.1,-3.1c-3.3,-3.3 -9.2,-4.6 -12.9,-3z"/>
  <path fill="#ffffff" id="svg_8" d="m251.500004,196.899995c-1.1,0.5 -3.1,2.1 -4.5,3.6c-2.4,2.6 -2.5,3.2 -2.5,15.6l0,12.9l3.3,3.2c2.8,2.8 3.9,3.3 8.2,3.3c4.3,0 5.4,-0.5 8.2,-3.3l3.3,-3.2l0,-13l0,-13l-3.1,-3.1c-3.3,-3.3 -9.2,-4.6 -12.9,-3z"/>
  <path fill="#ffffff" id="svg_9" d="m283.500004,196.899995c-1.1,0.5 -3.1,2.1 -4.5,3.6c-2.4,2.6 -2.5,3.2 -2.5,15.6l0,12.9l3.3,3.2c2.8,2.8 3.9,3.3 8.2,3.3c4.3,0 5.4,-0.5 8.2,-3.3l3.3,-3.2l0,-13l0,-13l-3.1,-3.1c-3.3,-3.3 -9.2,-4.6 -12.9,-3z"/>
  <path fill="#ffffff" id="svg_10" d="m155.500002,244.899996c-1.1,0.5 -3.1,2.1 -4.5,3.6c-2.4,2.6 -2.5,3.2 -2.5,15.6l0,12.9l3.3,3.2c2.8,2.8 3.9,3.3 8.2,3.3c4.3,0 5.4,-0.5 8.2,-3.3l3.3,-3.2l0,-13l0,-13l-3.1,-3.1c-3.3,-3.3 -9.2,-4.6 -12.9,-3z"/>
  <path fill="#ffffff" id="svg_11" d="m347.500005,244.899996c-1.1,0.5 -3.1,2.1 -4.5,3.6c-2.4,2.6 -2.5,3.2 -2.5,15.6l0,12.9l3.3,3.2c2.8,2.8 3.9,3.3 8.2,3.3c4.3,0 5.4,-0.5 8.2,-3.3l3.3,-3.2l0,-13l0,-13l-3.1,-3.1c-3.3,-3.3 -9.2,-4.6 -12.9,-3z"/>
 </g>
</svg>