<svg width="512" height="512" xmlns="http://www.w3.org/2000/svg" preserveAspectRatio="xMidYMid meet">

 <g>
  <title>background</title>
  <rect fill="none" id="canvas_background" height="402" width="582" y="-1" x="-1"/>
 </g>
 <g>
  <title>Layer 1</title>
  <path fill="#ffffff" id="svg_2" d="m307.100005,1.399992c-5.1,2.8 -5,2.2 -5.1,61.300001l0,55.300001l-97.000001,0l-97.000001,0l-3.2,2.9l-3.3,2.9l-0.3,54.100001l-0.3,54.000001l-42.400001,0.3l-42.500001,0.3l-2.7,2.8l-2.8,2.7l-0.3,127.000002c-0.2,111.100002 -0.4,127.000002 -1.7,127.000002c-0.8,0 -2.9,1.3 -4.7,2.9c-4.4,3.9 -4.6,9.8 -0.5,13.9l2.7,2.7l250.000004,0l250.000004,0l2.7,-2.7c4.1,-4.1 3.9,-10 -0.5,-13.9c-1.8,-1.6 -3.9,-2.9 -4.7,-2.9c-1.3,0 -1.5,-24.8 -1.5,-208.400003c0,-204.200003 0,-208.400003 -1.9,-210.800003c-1.1,-1.3 -3.7,-3.2 -5.8,-4.1c-11.3,-5 -180.900003,-68.700001 -182.700003,-68.700001c-1.1,0.1 -3.2,0.7 -4.5,1.4zm93.900001,53.100001c41.500001,15.8 76.700001,29.2 78.300001,29.7l2.7,1l0,203.400003l0,203.400003l-12,0l-12,0l-0.2,-162.000002l-0.3,-162.000002l-2.7,-2.7c-4.1,-4.1 -10,-3.9 -13.9,0.5l-2.9,3.2l0,161.500002l0,161.500002l-18,0l-18,0l-0.2,-184.000003l-0.3,-184.000003l-2.7,-2.7c-4.1,-4.1 -10,-3.9 -13.9,0.5l-2.9,3.2l0,183.500003l0,183.500003l-18,0l-18,0l-0.2,-184.100003l-0.3,-184.100003l-3.3,-2.9c-3,-2.7 -3.8,-2.9 -11.7,-2.9l-8.5,0l0,-46.600001c0,-43.900001 0.1,-46.600001 1.8,-46.100001c0.9,0.2 35.700001,13.4 77.200001,29.2zm-75.000001,102.500002l0,19l-68.500001,0.2l-68.500001,0.3l-2.7,2.8c-3.8,3.8 -3.8,9.6 0,13.4l2.7,2.8l68.500001,0.3l68.500001,0.2l0,18l0,17.9l-26.5,0.3l-26.5,0.3l-2.7,2.7c-2.1,2.1 -2.8,3.8 -2.8,6.8c0,3 0.7,4.7 2.8,6.7l2.7,2.8l26.5,0.3l26.5,0.3l0,17.9l0,17.9l-26.5,0.3l-26.5,0.3l-2.7,2.8c-3.8,3.8 -3.8,9.6 0,13.4l2.7,2.8l26.5,0.3l26.5,0.3l0,17.9l0,17.9l-26.5,0.3l-26.5,0.3l-2.7,2.8c-3.8,3.8 -3.8,9.6 0,13.5l2.7,2.7l26.5,0.3l26.5,0.3l0,17.9l0,18l-26,0l-26,0l-3.2,2.9c-4.4,3.9 -4.6,9.8 -0.5,13.9l2.7,2.7l26.5,0.3l26.5,0.3l0,35.900001l0,36.000001l-36.000001,0l-36.000001,0l-0.2,-127.000002l-0.3,-127.000002l-2.8,-2.7l-2.7,-2.8l-63.500001,-0.3l-63.500001,-0.2l0,-47.000001l0,-47.000001l102.500002,0l102.500002,0l0,19zm-92.000001,215.000003l0,120.000002l-102.000002,0l-102.000002,0l0,-120.000002l0,-120.000002l102.000002,0l102.000002,0l0,120.000002z"/>
  <path fill="#ffffff" id="svg_3" d="m444.400007,118.899994c-3.2,1.4 -6.4,6 -6.4,9.3c0,2.1 1.1,4.1 3.4,6.4c4.4,4.4 8.3,4.5 12.8,0.5c2.7,-2.4 3.3,-3.6 3.3,-7c0,-6.7 -7.1,-11.7 -13.1,-9.2z"/>
  <path fill="#ffffff" id="svg_4" d="m152.400002,176.899995c-3.2,1.4 -6.4,6 -6.4,9.3c0,2.1 1.1,4.1 3.4,6.4c4.4,4.4 8.3,4.5 12.8,0.5c2.7,-2.4 3.3,-3.6 3.3,-7c0,-6.7 -7.1,-11.7 -13.1,-9.2z"/>
  <path fill="#ffffff" id="svg_5" d="m54.700001,283.099997c-4.3,2.5 -4.7,5.5 -4.7,32.6c0,23.9 0.2,26 2,29c1.1,1.8 3.2,3.6 4.7,4c1.5,0.5 14.3,0.8 28.3,0.8c23,0 25.9,-0.2 28.3,-1.8c1.6,-1 3.2,-2.9 3.7,-4.3c0.6,-1.4 1,-14 1,-28c0,-27 -0.4,-30 -4.9,-32.4c-2.6,-1.4 -56.000001,-1.3 -58.400001,0.1zm43.300001,32.4l0,13.5l-14,0l-14,0l0,-13.5l0,-13.5l14,0l14,0l0,13.5z"/>
  <path fill="#ffffff" id="svg_6" d="m150.700002,283.099997c-4.3,2.5 -4.7,5.5 -4.7,32.6c0,23.8 0.2,26 2,29c1.3,2.3 3.1,3.5 6.1,4.3c6,1.6 51.600001,1 54.600001,-0.8c4.9,-2.8 5.3,-5.2 5.3,-32.7c0,-27.1 -0.4,-30.1 -4.9,-32.5c-2.6,-1.4 -56.000001,-1.3 -58.400001,0.1zm43.300001,32.4l0,13.5l-14,0l-14,0l0,-13.5l0,-13.5l14,0l14,0l0,13.5z"/>
  <path fill="#ffffff" id="svg_7" d="m60.500001,377.499998c-0.5,0.2 -2.3,0.6 -3.8,0.9c-1.6,0.4 -3.6,2 -4.7,3.9c-1.8,3 -2,5.1 -2,29c0,27.7 0.4,30.1 5.3,32.9c3,1.8 48.600001,2.4 54.600001,0.8c3,-0.8 4.8,-2 6.1,-4.3c1.8,-3 2,-5.2 2,-28.9c0,-14.1 -0.4,-26.8 -1,-28.2c-0.5,-1.4 -2.1,-3.3 -3.7,-4.3c-2.4,-1.6 -5.5,-1.8 -27.3,-2c-13.5,-0.1 -24.9,0 -25.5,0.2zm37.500001,34.000001l0,13.5l-14,0l-14,0l0,-13.5l0,-13.5l14,0l14,0l0,13.5z"/>
  <path fill="#ffffff" id="svg_8" d="m153.200002,378.099998c-2,0.6 -4.1,2.2 -5.2,4.2c-1.8,3 -2,5.1 -2,29.2c0,24 0.2,26.2 2,29.2c1.3,2.3 3.1,3.5 6.1,4.3c6,1.6 51.600001,1 54.600001,-0.8c4.9,-2.8 5.3,-5.2 5.3,-32.7c0,-27.5 -0.4,-29.9 -5.3,-32.7c-2.8,-1.6 -50.500001,-2.2 -55.500001,-0.7zm40.800001,33.4l0,13.5l-14,0l-14,0l0,-13.5l0,-13.5l14,0l14,0l0,13.5z"/>
 </g>
</svg>