<svg width="512" height="512" xmlns="http://www.w3.org/2000/svg" preserveAspectRatio="xMidYMid meet">

 <g>
  <title>background</title>
  <rect fill="none" id="canvas_background" height="402" width="582" y="-1" x="-1"/>
 </g>
 <g>
  <title>Layer 1</title>
  <path fill="#ffffff" id="svg_2" d="m304.200005,1.199992c-5.2,2.5 -62.800001,85.400001 -91.100001,131.100002l-7.3,11.7l4.1,5.3c10.4,12.9 30.6,40.300001 38.400001,51.900001c36.200001,53.900001 52.500001,95.100001 50.200001,126.800002c-1.5,20.9 -6.3,38.700001 -15.4,57.500001c-14.8,30.2 -37.000001,52.700001 -67.600001,68.100001c-5.6,2.8 -14,6.3 -18.8,7.9c-4.8,1.5 -8.7,3.1 -8.6,3.4c0.1,1.2 10.7,9.5 21.4,16.6c47.300001,31.7 106.000002,38.900001 160.500002,20c59.000001,-20.5 104.500002,-72.800001 117.000002,-134.200002c6.3,-31.4 4.6,-54.500001 -6.5,-87.800001c-12.3,-36.900001 -40.200001,-91.600001 -75.800001,-148.500002c-31.3,-50.100001 -83.100001,-124.600002 -89.900001,-129.400002c-2.6,-1.8 -7.2,-2 -10.6,-0.4zm148.200002,319.800005c1.4,0.5 3.5,2.4 4.7,4.2c1.8,3 2,4.3 1.4,12.8c-3.1,48.100001 -27.1,90.500001 -66.000001,116.400002c-22.6,15.1 -48.300001,23.7 -75.700001,25.3l-10.7,0.6l-3.6,-3.6c-4.7,-4.7 -5,-10.4 -0.7,-14.6c2.5,-2.6 3.6,-2.9 12.7,-3.6c35.900001,-2.6 63.100001,-14.9 86.700001,-39.300001c10.1,-10.5 16.6,-19.5 22.7,-31.8c7.6,-15.2 13.1,-36.000001 13.1,-49.900001c0,-8.8 1.5,-13.2 5.3,-15.5c3.6,-2.2 6.3,-2.5 10.1,-1z"/>
  <path fill="#ffffff" id="svg_3" d="m145.500002,117.999994c-2.5,1 -9.6,8.4 -21.6,22.5c-42.000001,49.100001 -76.100001,99.300001 -91.000001,134.000002c-9.9,23.3 -12.9,38.500001 -11,56.900001c5.8,57.700001 46.000001,102.200002 103.100002,114.300002c11.8,2.5 37.200001,2.4 49.000001,-0.1c46.900001,-10.1 83.300001,-42.800001 97.400001,-87.600001c6,-19 7.2,-43.700001 2.8,-59.700001c-11.2,-40.900001 -51.700001,-103.700002 -108.400002,-168.000003c-11,-12.5 -14.7,-14.7 -20.3,-12.3zm96.800001,195.000003c2.4,2.7 2.7,3.8 2.7,9.9c0,22 -9.9,45.700001 -26.3,62.800001c-17.2,17.9 -38.500001,28.1 -62.600001,29.9c-7.5,0.6 -9.3,0.4 -11.9,-1.1c-5.9,-3.5 -7.1,-11.7 -2.4,-16.4c2.4,-2.4 3.9,-2.9 10.7,-3.5c4.4,-0.4 10.9,-1.4 14.5,-2.3c30.7,-7.4 54.100001,-34.800001 56.600001,-66.600001c0.9,-10.3 1.6,-12.2 5.6,-14.7c4.5,-2.8 9.4,-2.1 13.1,2z"/>
 </g>
</svg>