<svg width="395.71000000000004" height="395.71000000000004" xmlns="http://www.w3.org/2000/svg">

 <g>
  <title>background</title>
  <rect fill="none" id="canvas_background" height="402" width="582" y="-1" x="-1"/>
 </g>
 <g>
  <title>Layer 1</title>
  <path fill="#ffffff" id="svg_2" d="m197.849,0c-75.718,0 -137.318,61.609 -137.318,137.329c0,72.887 124.591,243.177 129.896,250.388l4.951,6.738c0.579,0.792 1.501,1.255 2.471,1.255c0.985,0 1.901,-0.463 2.486,-1.255l4.948,-6.738c5.308,-7.211 129.896,-177.501 129.896,-250.388c0,-75.72 -61.61,-137.329 -137.33,-137.329zm0,88.138c27.13,0 49.191,22.062 49.191,49.191c0,27.115 -22.062,49.191 -49.191,49.191c-27.114,0 -49.191,-22.076 -49.191,-49.191c0,-27.129 22.076,-49.191 49.191,-49.191z"/>
 </g>
</svg>