<svg width="512" height="512" xmlns="http://www.w3.org/2000/svg" preserveAspectRatio="xMidYMid meet">

 <g>
  <title>background</title>
  <rect fill="none" id="canvas_background" height="514" width="514" y="-1" x="-1"/>
 </g>
 <g>
  <title>Layer 1</title>
  <path fill="#ffffff" id="svg_2" d="m221.500003,114.899994c-2.4,1 -30,25.3 -67.500001,59.100001c-75.000001,67.600001 -73.700001,66.400001 -76.100001,71.500001c-2.5,5.4 -2.5,15.6 0,21.2c2.6,5.7 132.700002,126.700002 139.900002,130.000002c6.4,3.1 14.1,3 20.7,-0.1c14.5,-6.7 18.9,-24.6 9.2,-37.300001c-1.8,-2.3 -21.1,-20.7 -43.100001,-41.000001l-39.800001,-36.800001l126.800002,-0.5l126.900002,-0.5l4,-2.2c9,-4.8 13.5,-12.3 13.5,-22.3c0,-10 -4.5,-17.5 -13.5,-22.3l-4,-2.2l-126.200002,-0.5l-126.200002,-0.5l42.800001,-38.600001c47.400001,-42.900001 47.100001,-42.500001 47.100001,-54.100001c-0.1,-10.3 -5.4,-18.8 -14.5,-22.9c-5.3,-2.4 -14.7,-2.4 -20,0z"/>
 </g>
</svg>