<svg width="512" height="512" xmlns="http://www.w3.org/2000/svg" preserveAspectRatio="xMidYMid meet">

 <g>
  <title>background</title>
  <rect fill="none" id="canvas_background" height="402" width="582" y="-1" x="-1"/>
 </g>
 <g>
  <title>Layer 1</title>
  <path fill="#ffffff" id="svg_2" d="m305.500005,1.699992c-29,6.2 -51.900001,29.4 -57.900001,58.500001c-1.4,6.8 -1.6,23.4 -1.6,140.300002l0,132.600002l-5.4,6.7c-6.8,8.5 -11.8,16.4 -15.1,23.7c-17.9,40.600001 -9.5,86.600001 21.4,117.600002c13.5,13.5 29.8,22.6 50.100001,28.1c11.5,3.2 36.200001,3.1 48.400001,-0.1c45.800001,-11.9 77.600001,-50.100001 80.300001,-96.200001c1.5,-26.2 -6.5,-50.700001 -23.7,-72.300001l-6,-7.6l0,-132.500002c0,-117.400002 -0.2,-133.500002 -1.6,-140.300002c-6.1,-29.5 -29.1,-52.500001 -58.600001,-58.600001c-9.4,-2 -21,-1.9 -30.3,0.1zm24.7,29.4c17.1,3.6 31,17.5 34.700001,34.700001c0.8,3.8 1.1,43.700001 1.1,141.200002c0,83.700001 0.4,136.800002 1,138.400002c0.5,1.4 4.3,6.1 8.4,10.6c8.2,9 14.1,19.1 17.7,31c3,9.5 3.3,28.9 0.6,38.600001c-10.7,38.800001 -49.000001,62.800001 -87.500001,54.800001c-14.4,-3 -26.2,-9.3 -37.100001,-19.7c-22.2,-21.5 -29,-53.400001 -17.5,-81.700001c3.5,-8.7 8.3,-15.9 16,-24.1c3.5,-3.8 6.9,-8 7.4,-9.4c0.6,-1.7 1,-51.800001 1,-138.500002c0,-96.100001 0.3,-137.500002 1.1,-141.200002c1.8,-8.7 5.8,-15.8 12.3,-22.3c11.1,-11.1 25.8,-15.5 40.800001,-12.4z"/>
  <path fill="#ffffff" id="svg_3" d="m313.800005,182.099995c-2.3,1.2 -4.6,3.5 -5.8,5.9c-2,3.8 -2,5.7 -2,90.200001l0,86.300001l-5.2,2.4c-6.5,3 -16.6,12.9 -19.7,19.4c-8.9,18.5 -5.8,38.100001 8.4,52.200001c21.2,21.3 57.000001,16.1 70.800001,-10.2c7.3,-14.2 7.5,-27.7 0.6,-42.000001c-3.3,-6.6 -13.2,-16.4 -19.6,-19.4l-5.3,-2.4l0,-86.300001c0,-84.500001 0,-86.400001 -2,-90.200001c-3.7,-7.3 -12.7,-9.9 -20.2,-5.9zm14.2,211.900003c4.5,2.3 8,8 8,13c0,7.6 -7.4,15 -15.1,15c-4.6,0 -10.8,-3.9 -13,-8.2c-3.7,-7.2 -1.4,-15.1 5.7,-19.4c4.8,-2.9 9.2,-3 14.4,-0.4z"/>
  <path fill="#ffffff" id="svg_4" d="m74.500001,61.599993c-4.4,2.3 -44.300001,42.200001 -46.600001,46.600001c-2.4,4.8 -2.4,8.9 0.1,13.8c2.3,4.5 8,8 13,8c4.8,0 8.8,-2.5 17.3,-10.8l7.7,-7.7l0,73.300001c0,71.500001 0,73.400001 2,77.200001c2.3,4.5 8,8 13,8c5,0 10.7,-3.5 13,-8c2,-3.8 2,-5.7 2,-77.200001l0,-73.300001l7.8,7.7c8.4,8.3 12.4,10.8 17.2,10.8c5,0 10.7,-3.5 13,-8c2.5,-4.9 2.5,-9 0.1,-13.8c-2.4,-4.6 -42.400001,-44.400001 -46.800001,-46.600001c-4,-2 -8.9,-2 -12.8,0z"/>
  <path fill="#ffffff" id="svg_5" d="m433.800006,62.099993c-4.3,2.2 -7.8,8.1 -7.8,12.9c0,5 3.5,10.7 8,13c3.5,1.8 5.9,2 22,2c16.1,0 18.5,-0.2 22,-2c4.5,-2.3 8,-8 8,-13c0,-5 -3.5,-10.7 -8,-13c-3.5,-1.8 -5.8,-2 -22.2,-2c-16.2,0.1 -18.7,0.3 -22,2.1z"/>
  <path fill="#ffffff" id="svg_6" d="m433.054086,122.099994c-4.3,2.2 -7.8,8.1 -7.8,12.9c0,5 3.5,10.7 8,13c3.2,1.6 5.9,2 14.5,2c8.6,0 11.3,-0.4 14.5,-2c4.5,-2.3 8,-8 8,-13c0,-5 -3.5,-10.7 -8,-13c-5.6,-2.9 -23.7,-2.8 -29.2,0.1z"/>
  <path fill="#ffffff" id="svg_7" d="m133.800002,182.099995c-2.3,1.2 -4.6,3.5 -5.8,5.9c-1.9,3.8 -2,5.8 -2,77.200001l0,73.300001l-7.7,-7.7c-4.3,-4.2 -9.2,-8.3 -11,-9.2c-12.2,-6.1 -25.8,7.5 -19.7,19.7c2.2,4.4 42.000001,44.400001 46.600001,46.800001c4.7,2.4 8.9,2.4 13.6,0c4.6,-2.4 44.400001,-42.400001 46.600001,-46.800001c6.1,-12.2 -7.5,-25.8 -19.7,-19.7c-1.8,0.9 -6.7,5 -10.9,9.2l-7.8,7.7l0,-73.300001c0,-71.500001 0,-73.400001 -2,-77.200001c-3.7,-7.3 -12.7,-9.9 -20.2,-5.9z"/>
  <path fill="#ffffff" id="svg_8" d="m433.800006,182.099995c-4.3,2.2 -7.8,8.1 -7.8,12.9c0,5 3.5,10.7 8,13c3.5,1.8 5.9,2 22,2c16.1,0 18.5,-0.2 22,-2c4.5,-2.3 8,-8 8,-13c0,-5 -3.5,-10.7 -8,-13c-3.5,-1.8 -5.8,-2 -22.2,-2c-16.2,0.1 -18.7,0.3 -22,2.1z"/>
  <path fill="#ffffff" id="svg_9" d="m434.545927,242.099996c-4.3,2.2 -7.8,8.1 -7.8,12.9c0,5 3.5,10.7 8,13c3.2,1.6 5.9,2 14.5,2c8.6,0 11.3,-0.4 14.5,-2c4.5,-2.3 8,-8 8,-13c0,-5 -3.5,-10.7 -8,-13c-5.6,-2.9 -23.7,-2.8 -29.2,0.1z"/>
  <path fill="#ffffff" id="svg_10" d="m433.800006,302.099997c-4.3,2.2 -7.8,8.1 -7.8,12.9c0,5 3.5,10.7 8,13c3.5,1.8 5.9,2 22,2c16.1,0 18.5,-0.2 22,-2c4.5,-2.3 8,-8 8,-13c0,-5 -3.5,-10.7 -8,-13c-3.5,-1.8 -5.8,-2 -22.2,-2c-16.2,0.1 -18.7,0.3 -22,2.1z"/>
 </g>
</svg>